<svg width="24" height="24" viewBox="0 0 24 24" fill="none" xmlns="http://www.w3.org/2000/svg">
<path d="M5 18.77V17.77H6.616V9.845C6.616 8.53833 7.02933 7.38933 7.856 6.398C8.68267 5.40667 9.73067 4.78933 11 4.546V3H13V4.546C14.2693 4.79 15.3173 5.40767 16.144 6.399C16.9707 7.39033 17.384 8.53933 17.384 9.846V17.769H19V18.769L5 18.77ZM11.997 21.385C11.5517 21.385 11.1717 21.2267 10.857 20.91C10.5423 20.5933 10.385 20.2133 10.385 19.77H13.615C13.615 20.2167 13.4567 20.5973 13.14 20.912C12.8227 21.2267 12.4417 21.385 11.997 21.385ZM7.616 17.77H16.385V9.846C16.385 8.63067 15.958 7.596 15.104 6.742C14.25 5.888 13.2153 5.46133 12 5.462C10.7847 5.46267 9.75 5.88933 8.896 6.742C8.042 7.59467 7.61533 8.62933 7.616 9.846V17.77Z" fill="black"/>
</svg>
