<svg width="24" height="24" viewBox="0 0 24 24" fill="none" xmlns="http://www.w3.org/2000/svg">
<path d="M8.077 20H5.616C5.15533 20 4.771 19.846 4.463 19.538C4.155 19.23 4.00067 18.8453 4 18.384V12C4 10.8907 4.20867 9.85133 4.626 8.882C5.04333 7.91267 5.61467 7.06533 6.34 6.34C7.06533 5.61467 7.91267 5.04333 8.882 4.626C9.85133 4.20867 10.8907 4 12 4C13.1093 4 14.1487 4.20867 15.118 4.626C16.0873 5.04333 16.9347 5.61467 17.66 6.34C18.3853 7.06533 18.9567 7.91267 19.374 8.882C19.7913 9.85133 20 10.8907 20 12V18.385C20 18.845 19.846 19.229 19.538 19.537C19.23 19.845 18.8453 19.9993 18.384 20H15.923V13.846H19V12C19 10.05 18.321 8.396 16.963 7.038C15.605 5.68 13.9507 5.00067 12 5C10.0493 4.99933 8.39533 5.67867 7.038 7.038C5.68067 8.39733 5.00133 10.0513 5 12V13.846H8.077V20ZM7.077 14.846H5V18.385C5 18.5383 5.064 18.6793 5.192 18.808C5.32 18.9367 5.461 19.0007 5.615 19H7.077V14.846ZM16.923 14.846V19H18.385C18.5383 19 18.6793 18.936 18.808 18.808C18.9367 18.68 19.0007 18.5387 19 18.384V14.846H16.923Z" fill="black"/>
</svg>
