<svg width="208" height="67" viewBox="0 0 208 67" fill="none" xmlns="http://www.w3.org/2000/svg">
<path d="M36.5133 23.8942C36.5133 32.2765 30.8272 37.7385 22.4502 37.7385C14.0733 37.7385 8.3871 32.2765 8.3871 23.8942C8.3871 15.5661 14.0733 10.05 22.4502 10.05C30.8272 10.05 36.5133 15.5661 36.5133 23.8942ZM16.9164 23.8942C16.9164 27.8961 19.201 30.1133 22.4502 30.1133C25.6994 30.1133 27.9841 27.8961 27.9841 23.8942C27.9841 19.8924 25.6994 17.6751 22.4502 17.6751C19.201 17.6751 16.9164 19.8924 16.9164 23.8942ZM20.6733 40.0098V47.9595H50.3226V56.1795H11.941V40.0098H20.6733Z" fill="#13A300"/>
<path d="M53.6774 16.9435H48.6888V10.05H40.2581V35.6775H48.6888V23.5936H53.6774V16.9435Z" fill="#13A300"/>
<path d="M40.2581 44.22L48.6452 44.2196V37.386H40.2581V44.22Z" fill="#13A300"/>
<path d="M73.3032 28.3993C69.9819 32.961 64.849 36.2413 58.7097 36.3951V28.553C64.4968 28.0917 68.12 23.0175 68.8748 17.4307H59.3136V10.05H86.689V17.4307H77.4297C77.329 18.8146 77.0774 20.1985 76.6748 21.5311L88.551 29.8857L83.7703 36.0363L73.3032 28.3993Z" fill="#13A300"/>
<path d="M102.323 48.4141H68.3765V40.803H58.7097V56.1795H102.323V48.4141Z" fill="#13A300"/>
<path d="M88.9032 16.9272H94.3089V10.05H102.323V33.969H94.3089V22.4818H88.9032V16.9272Z" fill="#13A300"/>
<path d="M93.9355 44.22L102.323 44.2196V37.386H93.9355V44.22Z" fill="#13A300"/>
<path d="M129.161 30.6701C117.804 30.6701 109.374 27.4283 109.374 20.36C109.374 13.2918 117.804 10.05 129.161 10.05C140.519 10.05 148.949 13.2918 148.949 20.36C148.949 27.4283 140.519 30.6701 129.161 30.6701ZM129.161 16.9588C122.7 16.9588 118.46 18.1811 118.46 20.36C118.46 22.5921 122.7 23.7613 129.161 23.7613C135.622 23.7613 139.863 22.5921 139.863 20.36C139.863 18.1811 135.622 16.9588 129.161 16.9588ZM107.355 32.6896H150.968V40.0767H133.452V46.2415H124.871V40.0767H107.355V32.6896ZM118.561 42.7339V48.7392H148.949V56.1795H109.879V42.7339H118.561Z" fill="#13A300"/>
<path d="M170.594 28.3993C167.272 32.961 162.139 36.2413 156 36.3951V28.553C161.787 28.0917 165.41 23.0175 166.165 17.4307H156.604V10.05H183.979V17.4307H174.72C174.619 18.8146 174.368 20.1985 173.965 21.5311L185.841 29.8857L181.061 36.0363L170.594 28.3993Z" fill="#13A300"/>
<path d="M199.613 48.4141H165.667V40.803H156V56.1795H199.613V48.4141Z" fill="#13A300"/>
<path d="M186.194 16.9272H191.599V10.05H199.613V33.969H191.599V22.4818H186.194V16.9272Z" fill="#13A300"/>
<path d="M191.226 44.22L199.613 44.2196V37.386H191.226V44.22Z" fill="#13A300"/>
</svg>
