<svg width="343" height="48" viewBox="0 0 343 48" fill="none" xmlns="http://www.w3.org/2000/svg">
<rect x="0.5" y="0.5" width="342" height="47" rx="3.5" fill="white"/>
<rect x="0.5" y="0.5" width="342" height="47" rx="3.5" stroke="#E9E9E9"/>
<path d="M51.8055 22.0415H51V22H42V26H47.6515C46.827 28.3285 44.6115 30 42 30C38.6865 30 36 27.3135 36 24C36 20.6865 38.6865 18 42 18C43.5295 18 44.921 18.577 45.9805 19.5195L48.809 16.691C47.023 15.0265 44.634 14 42 14C36.4775 14 32 18.4775 32 24C32 29.5225 36.4775 34 42 34C47.5225 34 52 29.5225 52 24C52 23.3295 51.931 22.675 51.8055 22.0415Z" fill="#FFC107"/>
<path d="M33.153 19.3455L36.4385 21.755C37.3275 19.554 39.4805 18 42 18C43.5295 18 44.921 18.577 45.9805 19.5195L48.809 16.691C47.023 15.0265 44.634 14 42 14C38.159 14 34.828 16.1685 33.153 19.3455Z" fill="#FF3D00"/>
<path d="M42 34C44.583 34 46.93 33.0115 48.7045 31.404L45.6095 28.785C44.572 29.5745 43.3038 30.0014 42 30C39.399 30 37.1905 28.3415 36.3585 26.027L33.0975 28.5395C34.7525 31.778 38.1135 34 42 34Z" fill="#4CAF50"/>
<path d="M51.8055 22.0415H51V22H42V26H47.6515C47.2571 27.1082 46.5467 28.0766 45.608 28.7855L45.6095 28.7845L48.7045 31.4035C48.4855 31.6025 52 29 52 24C52 23.3295 51.931 22.675 51.8055 22.0415Z" fill="#1976D2"/>
<path d="M113.533 30.71C110.518 30.71 108.208 28.7 108.208 24.995C108.208 21.335 110.578 19.205 113.533 19.205C115.123 19.205 116.233 19.895 116.953 20.615L115.783 22.04C115.228 21.515 114.598 21.11 113.608 21.11C111.748 21.11 110.473 22.55 110.473 24.92C110.473 27.35 111.583 28.79 113.758 28.79C114.298 28.79 114.838 28.64 115.153 28.385V26.195H113.173V24.38H117.133V29.375C116.383 30.125 115.063 30.71 113.533 30.71ZM122.845 30.71C120.73 30.71 118.81 29.09 118.81 26.315C118.81 23.525 120.73 21.905 122.845 21.905C124.945 21.905 126.865 23.525 126.865 26.315C126.865 29.09 124.945 30.71 122.845 30.71ZM122.845 28.925C123.985 28.925 124.615 27.89 124.615 26.315C124.615 24.725 123.985 23.705 122.845 23.705C121.69 23.705 121.06 24.725 121.06 26.315C121.06 27.89 121.69 28.925 122.845 28.925ZM132.235 30.71C130.12 30.71 128.2 29.09 128.2 26.315C128.2 23.525 130.12 21.905 132.235 21.905C134.335 21.905 136.255 23.525 136.255 26.315C136.255 29.09 134.335 30.71 132.235 30.71ZM132.235 28.925C133.375 28.925 134.005 27.89 134.005 26.315C134.005 24.725 133.375 23.705 132.235 23.705C131.08 23.705 130.45 24.725 130.45 26.315C130.45 27.89 131.08 28.925 132.235 28.925ZM141.055 34.145C139.09 34.145 137.56 33.47 137.56 32C137.56 31.295 137.98 30.68 138.76 30.26V30.185C138.325 29.9 137.995 29.45 137.995 28.76C137.995 28.13 138.415 27.56 138.94 27.2V27.14C138.355 26.72 137.8 25.925 137.8 24.935C137.8 22.955 139.42 21.905 141.19 21.905C141.67 21.905 142.12 21.98 142.465 22.115H145.495V23.735H144.055C144.28 24.02 144.445 24.485 144.445 24.995C144.445 26.9 143.005 27.845 141.19 27.845C140.86 27.845 140.485 27.785 140.11 27.65C139.885 27.86 139.75 28.04 139.75 28.385C139.75 28.82 140.095 29.075 141.07 29.075H142.51C144.535 29.075 145.645 29.69 145.645 31.175C145.645 32.87 143.86 34.145 141.055 34.145ZM141.19 26.495C141.925 26.495 142.51 25.925 142.51 24.935C142.51 23.945 141.94 23.405 141.19 23.405C140.455 23.405 139.87 23.945 139.87 24.935C139.87 25.925 140.455 26.495 141.19 26.495ZM141.4 32.75C142.66 32.75 143.515 32.195 143.515 31.55C143.515 30.95 143.02 30.785 142.12 30.785H141.1C140.59 30.785 140.245 30.755 139.945 30.665C139.555 30.98 139.39 31.31 139.39 31.655C139.39 32.36 140.17 32.75 141.4 32.75ZM149.135 30.71C147.59 30.71 147.065 29.705 147.065 28.145V18.545H149.27V28.235C149.27 28.76 149.495 28.925 149.705 28.925C149.78 28.925 149.84 28.925 149.99 28.895L150.26 30.53C150.005 30.62 149.66 30.71 149.135 30.71ZM155.456 30.71C153.101 30.71 151.271 29.09 151.271 26.315C151.271 23.585 153.191 21.905 155.171 21.905C157.496 21.905 158.681 23.585 158.681 25.91C158.681 26.33 158.636 26.72 158.591 26.93H153.401C153.596 28.31 154.496 29.015 155.741 29.015C156.416 29.015 157.016 28.805 157.631 28.43L158.366 29.795C157.541 30.365 156.491 30.71 155.456 30.71ZM153.371 25.46H156.806C156.806 24.32 156.296 23.6 155.216 23.6C154.331 23.6 153.551 24.23 153.371 25.46ZM168.681 21.605H171.501V23.195H168.681V21.605ZM168.606 25.07H171.441V26.66H168.606V25.07ZM173.391 17.945H175.296V31.835H173.391V17.945ZM170.526 18.245H172.386V31.22H170.526V18.245ZM167.391 19.58H169.311C169.311 23.525 168.126 26.675 164.256 28.955L163.131 27.56C166.266 25.655 167.391 23.345 167.391 19.985V19.58ZM163.926 19.58H168.066V21.17H163.926V19.58ZM184.654 21.305H187.294V22.925H184.654V21.305ZM186.754 17.945H188.749V26.195H186.754V17.945ZM184.039 26.495C186.979 26.495 188.794 27.5 188.794 29.18C188.794 30.875 186.979 31.85 184.039 31.85C181.099 31.85 179.284 30.875 179.284 29.18C179.284 27.5 181.099 26.495 184.039 26.495ZM184.039 28.01C182.239 28.01 181.279 28.385 181.279 29.18C181.279 29.96 182.239 30.335 184.039 30.335C185.854 30.335 186.814 29.96 186.814 29.18C186.814 28.385 185.854 28.01 184.039 28.01ZM180.334 19.34H181.954V20.21C181.954 22.865 180.724 25.295 178.069 26.195L177.049 24.62C179.344 23.84 180.334 21.995 180.334 20.21V19.34ZM180.754 19.34H182.359V20.21C182.359 21.845 183.304 23.54 185.494 24.275L184.519 25.85C181.939 24.995 180.754 22.685 180.754 20.21V19.34ZM177.589 18.785H185.059V20.375H177.589V18.785ZM197.208 18.635C200.133 18.635 202.398 20.24 202.398 22.655C202.398 25.085 200.133 26.675 197.208 26.675C194.283 26.675 192.018 25.085 192.018 22.655C192.018 20.24 194.283 18.635 197.208 18.635ZM197.208 20.255C195.318 20.255 193.968 21.155 193.968 22.655C193.968 24.14 195.318 25.04 197.208 25.04C199.098 25.04 200.448 24.14 200.448 22.655C200.448 21.155 199.098 20.255 197.208 20.255ZM190.938 28.535H203.508V30.17H190.938V28.535ZM204.737 28.685H217.307V30.305H204.737V28.685ZM210.002 26.06H211.997V29.345H210.002V26.06ZM206.147 18.845H215.897V23.465H208.157V25.805H206.177V21.905H213.917V20.42H206.147V18.845ZM206.177 25.01H216.212V26.615H206.177V25.01ZM221.934 28.685H234.504V30.305H221.934V28.685ZM227.199 26.06H229.194V29.345H227.199V26.06ZM223.344 18.845H233.094V23.465H225.354V25.805H223.374V21.905H231.114V20.42H223.344V18.845ZM223.374 25.01H233.409V26.615H223.374V25.01ZM237.008 19.22H245.813V20.795H237.008V19.22ZM235.733 28.4H248.288V30.02H235.733V28.4ZM244.763 19.22H246.743V20.87C246.743 22.82 246.743 24.71 246.248 27.56L244.253 27.395C244.763 24.725 244.763 22.745 244.763 20.87V19.22ZM259.057 17.96H261.067V27.935H259.057V17.96ZM251.812 30.005H261.412V31.595H251.812V30.005ZM251.812 26.93H253.807V30.65H251.812V26.93ZM253.507 18.83C255.637 18.83 257.272 20.3 257.272 22.355C257.272 24.395 255.637 25.88 253.507 25.88C251.377 25.88 249.727 24.395 249.727 22.355C249.727 20.3 251.377 18.83 253.507 18.83ZM253.507 20.555C252.472 20.555 251.677 21.215 251.677 22.355C251.677 23.48 252.472 24.14 253.507 24.14C254.527 24.14 255.322 23.48 255.322 22.355C255.322 21.215 254.527 20.555 253.507 20.555Z" fill="black" fill-opacity="0.85"/>
</svg>
