<svg width="24" height="24" viewBox="0 0 24 24" fill="none" xmlns="http://www.w3.org/2000/svg">
<path d="M12 21C10.7573 21 9.58833 20.764 8.493 20.292C7.39767 19.8193 6.44467 19.178 5.634 18.368C4.82333 17.558 4.18167 16.606 3.709 15.512C3.23633 14.418 3 13.2483 3 12.003C3 10.7577 3.23633 9.58767 3.709 8.493C4.181 7.39767 4.82133 6.44467 5.63 5.634C6.43867 4.82333 7.391 4.18167 8.487 3.709C9.583 3.23633 10.753 3 11.997 3C13.241 3 14.411 3.23633 15.507 3.709C16.603 4.18167 17.556 4.823 18.366 5.633C19.176 6.443 19.8177 7.39533 20.291 8.49C20.7643 9.58467 21.0007 10.7547 21 12V12.989C21 13.831 20.7107 14.5433 20.132 15.126C19.5533 15.7087 18.8427 16 18 16C17.404 16 16.8607 15.8367 16.37 15.51C15.8787 15.1833 15.5153 14.748 15.28 14.204C14.9 14.7513 14.425 15.1873 13.855 15.512C13.285 15.8367 12.6667 15.9993 12 16C10.886 16 9.941 15.612 9.165 14.836C8.38833 14.0587 8 13.1133 8 12C8 10.8867 8.38833 9.94167 9.165 9.165C9.94167 8.38833 10.8867 8 12 8C13.1133 8 14.0587 8.38833 14.836 9.165C15.6133 9.94167 16.0013 10.8867 16 12V12.989C16 13.537 16.1963 14.0093 16.589 14.406C16.9817 14.8027 17.452 15.0007 18 15C18.548 14.9993 19.0187 14.8013 19.412 14.406C19.8053 14.0107 20.0013 13.538 20 12.988V12C20 9.76667 19.225 7.875 17.675 6.325C16.125 4.775 14.2333 4 12 4C9.76667 4 7.875 4.775 6.325 6.325C4.775 7.875 4 9.76667 4 12C4 14.2333 4.775 16.125 6.325 17.675C7.875 19.225 9.76667 20 12 20H17V21H12ZM12 15C12.8333 15 13.5417 14.7083 14.125 14.125C14.7083 13.5417 15 12.8333 15 12C15 11.1667 14.7083 10.4583 14.125 9.875C13.5417 9.29167 12.8333 9 12 9C11.1667 9 10.4583 9.29167 9.875 9.875C9.29167 10.4583 9 11.1667 9 12C9 12.8333 9.29167 13.5417 9.875 14.125C10.4583 14.7083 11.1667 15 12 15Z" fill="black"/>
</svg>
