<svg width="24" height="24" viewBox="0 0 24 24" fill="none" xmlns="http://www.w3.org/2000/svg">
<path d="M12.004 11.73C12.4487 11.73 12.8287 11.5717 13.144 11.255C13.4593 10.9383 13.6167 10.5573 13.616 10.112C13.6153 9.66667 13.4567 9.28667 13.14 8.972C12.8233 8.65733 12.4423 8.5 11.997 8.5C11.5517 8.5 11.1717 8.65867 10.857 8.976C10.5423 9.29333 10.385 9.67433 10.385 10.119C10.385 10.5637 10.5433 10.9437 10.86 11.259C11.1767 11.5743 11.558 11.7317 12.004 11.731M12 19.677C13.88 18.041 15.366 16.3773 16.458 14.686C17.55 12.9947 18.096 11.5313 18.096 10.296C18.096 8.46667 17.517 6.95667 16.359 5.766C15.1997 4.576 13.7467 3.981 12 3.981C10.2533 3.981 8.80034 4.576 7.64101 5.766C6.48167 6.956 5.90267 8.466 5.90401 10.296C5.90401 11.5307 6.45001 12.994 7.54201 14.686C8.63401 16.378 10.12 18.0417 12 19.677ZM12 21.019C9.65001 18.941 7.88001 17.003 6.69001 15.205C5.49934 13.407 4.90401 11.7707 4.90401 10.296C4.90401 8.18067 5.59267 6.436 6.97001 5.062C8.34801 3.68733 10.0247 3 12 3C13.9753 3 15.652 3.68733 17.03 5.062C18.4073 6.436 19.096 8.18067 19.096 10.296C19.096 11.7707 18.501 13.407 17.311 15.205C16.1203 17.003 14.35 18.941 12 21.019Z" fill="black"/>
</svg>
