<svg width="24" height="24" viewBox="0 0 24 24" fill="none" xmlns="http://www.w3.org/2000/svg">
<path d="M12.058 20C9.83533 20 7.94633 19.2223 6.391 17.667C4.83566 16.1117 4.058 14.2227 4.058 12C4.058 9.974 4.718 8.21733 6.038 6.73C7.358 5.24267 8.99267 4.36467 10.942 4.096C10.996 4.096 11.049 4.098 11.101 4.102C11.153 4.106 11.204 4.11167 11.254 4.119C10.9167 4.58967 10.6497 5.113 10.453 5.689C10.2563 6.265 10.158 6.86867 10.158 7.5C10.158 9.278 10.78 10.789 12.024 12.033C13.268 13.277 14.7793 13.8993 16.558 13.9C17.192 13.9 17.7963 13.8017 18.371 13.605C18.9457 13.4083 19.4617 13.1413 19.919 12.804C19.927 12.854 19.9327 12.905 19.936 12.957C19.9393 13.009 19.9413 13.062 19.942 13.116C19.686 15.0647 18.8143 16.699 17.327 18.019C15.8397 19.339 14.084 19.9993 12.058 20ZM12.057 19C13.5237 19 14.8403 18.5957 16.007 17.787C17.1737 16.9783 18.0237 15.9243 18.557 14.625C18.2237 14.7083 17.8903 14.775 17.557 14.825C17.2237 14.875 16.8903 14.9 16.557 14.9C14.5077 14.9 12.762 14.1793 11.32 12.738C9.878 11.2967 9.15733 9.55067 9.158 7.5C9.158 7.16667 9.183 6.83333 9.233 6.5C9.283 6.16667 9.34966 5.83333 9.433 5.5C8.133 6.03333 7.07867 6.88333 6.27 8.05C5.46133 9.21667 5.05733 10.5333 5.058 12C5.058 13.9333 5.74133 15.5833 7.108 16.95C8.47467 18.3167 10.1237 19 12.057 19Z" fill="black"/>
</svg>
