<svg width="24" height="24" viewBox="0 0 24 24" fill="none" xmlns="http://www.w3.org/2000/svg">
<path d="M10.758 15.192C11.068 15.5027 11.466 15.644 11.952 15.616C12.438 15.5887 12.7927 15.414 13.016 15.092L18.269 7.769L10.908 12.985C10.5733 13.2077 10.387 13.5537 10.349 14.023C10.311 14.4923 10.4473 14.8813 10.758 15.192ZM12 5C12.9193 5 13.756 5.112 14.51 5.336C15.2647 5.55933 16.0167 5.901 16.766 6.361L15.846 6.984C15.2573 6.66266 14.648 6.41833 14.018 6.251C13.388 6.08366 12.7153 6 12 6C9.78333 6 7.89567 6.77933 6.337 8.338C4.77833 9.89666 3.99933 11.784 4 14C4 14.7 4.096 15.3917 4.288 16.075C4.48 16.7583 4.75067 17.4 5.1 18H18.9C19.2833 17.3667 19.5627 16.7083 19.738 16.025C19.9133 15.3417 20.0007 14.6333 20 13.9C20 13.3 19.9227 12.6687 19.768 12.006C19.6133 11.3433 19.3687 10.726 19.034 10.154L19.658 9.234C20.1447 10.0687 20.489 10.854 20.691 11.59C20.893 12.326 20.996 13.092 21 13.888C21.004 14.748 20.9083 15.5507 20.713 16.296C20.5183 17.0413 20.215 17.7927 19.803 18.55C19.723 18.6833 19.6013 18.7917 19.438 18.875C19.2747 18.9583 19.0953 19 18.9 19H5.1C4.91667 19 4.74667 18.9553 4.59 18.866C4.434 18.776 4.30267 18.645 4.196 18.473C3.86533 17.8897 3.58333 17.2317 3.35 16.499C3.11667 15.7663 3 14.9333 3 14C3 12.7707 3.23333 11.6103 3.7 10.519C4.166 9.42766 4.80233 8.472 5.609 7.652C6.41567 6.832 7.36967 6.18466 8.471 5.71C9.57233 5.23533 10.7487 4.99866 12 5Z" fill="black"/>
</svg>
