<svg width="24" height="24" viewBox="0 0 24 24" fill="none" xmlns="http://www.w3.org/2000/svg">
<path d="M14.077 19.494V18.444C15.4617 17.9593 16.577 17.126 17.423 15.944C18.269 14.762 18.6923 13.439 18.693 11.975C18.6937 10.511 18.2703 9.18765 17.423 8.00499C16.5757 6.82232 15.4603 5.98899 14.077 5.50499V4.45499C15.7337 4.98632 17.0837 5.93965 18.127 7.31499C19.1703 8.69032 19.692 10.2437 19.692 11.975C19.692 13.7063 19.1703 15.2597 18.127 16.635C17.0837 18.0103 15.7337 18.9637 14.077 19.495M4.30701 14V9.99999H7.73101L11.308 6.42299V17.577L7.73001 14H4.30701ZM14.077 15.308V8.64199C14.6423 9.00865 15.0723 9.49165 15.367 10.091C15.6603 10.6897 15.807 11.326 15.807 12C15.807 12.6707 15.657 13.298 15.357 13.882C15.057 14.466 14.6303 14.9413 14.077 15.308ZM10.307 8.84999L8.15801 11H5.30801V13H8.15801L10.308 15.15L10.307 8.84999Z" fill="black"/>
</svg>
