<svg width="24" height="24" viewBox="0 0 24 24" fill="none" xmlns="http://www.w3.org/2000/svg">
<path d="M19.146 21.677L16.14 18.671C15.8647 18.8483 15.577 19.004 15.277 19.138C14.977 19.272 14.667 19.3907 14.347 19.494V18.444C14.5417 18.374 14.729 18.3003 14.909 18.223C15.089 18.1463 15.2597 18.056 15.421 17.952L11.577 14.108V17.577L8.00001 14H4.57701V10H7.46901L2.59201 5.12301L3.30001 4.41501L19.854 20.97L19.146 21.677ZM18.369 16.666L17.669 15.966C18.081 15.398 18.3993 14.776 18.624 14.1C18.8487 13.424 18.9613 12.7157 18.962 11.975C18.962 10.511 18.5387 9.18768 17.692 8.00501C16.8453 6.82234 15.73 5.98901 14.346 5.50501V4.45501C16.0153 4.98634 17.3687 5.93968 18.406 7.31501C19.4433 8.69034 19.962 10.2437 19.962 11.975C19.962 12.8457 19.822 13.6797 19.542 14.477C19.262 15.2743 18.871 16.004 18.369 16.666ZM15.596 13.892L14.346 12.642V8.64201C14.9113 9.00868 15.3413 9.49167 15.636 10.091C15.93 10.6897 16.077 11.326 16.077 12C16.077 12.34 16.037 12.6693 15.957 12.988C15.877 13.3067 15.757 13.608 15.597 13.892M11.577 9.87301L9.86101 8.13901L11.577 6.42301V9.87301ZM10.577 15.15V13.108L8.46901 11H5.57701V13H8.42701L10.577 15.15Z" fill="black"/>
</svg>
