<svg width="24" height="24" viewBox="0 0 24 24" fill="none" xmlns="http://www.w3.org/2000/svg">
<path d="M5 18.77V17.77H6.616V9.845C6.616 8.53833 7.02933 7.38933 7.856 6.398C8.68267 5.40667 9.73067 4.78933 11 4.546V4C11 3.722 11.097 3.486 11.291 3.292C11.485 3.09733 11.7207 3 11.998 3C12.2753 3 12.5117 3.09733 12.707 3.292C12.9023 3.48667 13 3.72267 13 4V4.546C14.2693 4.78933 15.3173 5.407 16.144 6.399C16.9707 7.391 17.384 8.54 17.384 9.846V17.769H19V18.769L5 18.77ZM11.997 21.385C11.5517 21.385 11.1717 21.2267 10.857 20.91C10.5423 20.5933 10.385 20.2133 10.385 19.77H13.615C13.615 20.2167 13.4567 20.5973 13.14 20.912C12.8227 21.2267 12.4417 21.385 11.997 21.385Z" fill="black"/>
</svg>
