<svg width="24" height="24" viewBox="0 0 24 24" fill="none" xmlns="http://www.w3.org/2000/svg">
<path d="M12 11.385C11.1753 11.385 10.469 11.091 9.881 10.503C9.293 9.915 8.99933 9.209 9 8.385C9.00067 7.561 9.29433 6.85433 9.881 6.265C10.4677 5.67567 11.174 5.38267 12 5.386C12.826 5.38933 13.5323 5.68267 14.119 6.266C14.7057 6.84933 14.9993 7.556 15 8.386C15.0007 9.216 14.707 9.922 14.119 10.504C13.531 11.086 12.8247 11.379 12 11.385ZM5 18.616V16.97C5 16.5573 5.12 16.1713 5.36 15.812C5.60067 15.452 5.924 15.1727 6.33 14.974C7.274 14.5213 8.21867 14.182 9.164 13.956C10.1087 13.7293 11.054 13.616 12 13.616C12.946 13.616 13.8917 13.7293 14.837 13.956C15.7823 14.1827 16.7263 14.522 17.669 14.974C18.0757 15.1727 18.399 15.452 18.639 15.812C18.8797 16.1713 19 16.5573 19 16.97V18.616H5Z" fill="black"/>
</svg>
