<svg width="24" height="24" viewBox="0 0 24 24" fill="none" xmlns="http://www.w3.org/2000/svg">
<path d="M15.446 12.646L14.65 11.85C14.8 10.9767 14.5527 10.221 13.908 9.583C13.2633 8.945 12.5107 8.70067 11.65 8.85L10.854 8.054C11.022 7.98467 11.1973 7.93267 11.38 7.898C11.5627 7.86333 11.7693 7.846 12 7.846C13.0193 7.846 13.883 8.20033 14.591 8.909C15.299 9.61767 15.6533 10.4813 15.654 11.5C15.654 11.7307 15.6367 11.944 15.602 12.14C15.5673 12.3353 15.5153 12.504 15.446 12.646ZM18.608 15.719L17.85 15.05C18.4833 14.5667 19.046 14.0373 19.538 13.462C20.03 12.8867 20.4507 12.2327 20.8 11.5C19.9667 9.81667 18.7707 8.47933 17.212 7.488C15.6533 6.49667 13.916 6.00067 12 6C11.5167 6 11.0417 6.03333 10.575 6.1C10.1083 6.16667 9.65 6.26667 9.2 6.4L8.42 5.62C9 5.4 9.59067 5.24167 10.192 5.145C10.7933 5.04833 11.396 5 12 5C14.1707 5 16.156 5.59667 17.956 6.79C19.756 7.98267 21.0783 9.55267 21.923 11.5C21.5657 12.304 21.113 13.0593 20.565 13.766C20.017 14.4727 19.3647 15.1237 18.608 15.719ZM19.723 21.139L15.831 17.258C15.3883 17.454 14.8393 17.6267 14.184 17.776C13.528 17.9253 12.8 18 12 18C9.81667 18 7.83134 17.4033 6.044 16.21C4.25734 15.0173 2.935 13.4473 2.077 11.5C2.46567 10.6167 2.978 9.78933 3.614 9.018C4.24934 8.24667 4.928 7.59967 5.65 7.077L2.861 4.277L3.569 3.569L20.431 20.431L19.723 21.139ZM6.358 7.785C5.78467 8.19233 5.19867 8.728 4.6 9.392C4.00134 10.0567 3.53467 10.7593 3.2 11.5C4.03334 13.1833 5.229 14.521 6.787 15.513C8.345 16.505 10.0827 17.0007 12 17C12.5767 17 13.158 16.944 13.744 16.832C14.33 16.72 14.7707 16.6067 15.066 16.492L13.434 14.85C13.2767 14.9387 13.057 15.0113 12.775 15.068C12.493 15.1247 12.2347 15.1533 12 15.154C10.9807 15.154 10.117 14.7997 9.409 14.091C8.701 13.3823 8.34667 12.5187 8.346 11.5C8.346 11.278 8.37467 11.0293 8.432 10.754C8.48934 10.4787 8.562 10.2493 8.65 10.066L6.358 7.785Z" fill="black"/>
</svg>
