<svg width="24" height="24" viewBox="0 0 24 24" fill="none" xmlns="http://www.w3.org/2000/svg">
<path d="M17.879 9.65401C18.2317 8.86201 18.4943 8.09834 18.667 7.36301C18.8403 6.62767 18.9493 5.84001 18.994 5.00001H16.366L15.786 7.73501L17.879 9.65401ZM5 18.988C5.73067 18.9893 6.485 18.9037 7.263 18.731C8.04033 18.5577 8.76233 18.31 9.429 17.988L7.389 15.909L5 16.385V18.988ZM16.485 13.754L15.765 13.034C15.9663 12.7873 16.2187 12.4447 16.522 12.006C16.8253 11.5673 17.1213 11.096 17.41 10.592L14.713 8.08201L15.563 4.00001H20V4.80001C20 6.34734 19.6877 7.90267 19.063 9.46601C18.439 11.0287 17.5797 12.458 16.485 13.754ZM4.8 20H4V15.587L7.75 14.831L10.38 17.519C11.0947 17.117 11.721 16.7303 12.259 16.359C12.797 15.9877 13.2787 15.6077 13.704 15.219L2.86 4.37701L3.568 3.66901L20.43 20.531L19.722 21.239L14.422 15.939C13.004 17.227 11.4553 18.226 9.776 18.936C8.09667 19.646 6.438 20.0007 4.8 20Z" fill="black"/>
</svg>
