<svg width="24" height="24" viewBox="0 0 24 24" fill="none" xmlns="http://www.w3.org/2000/svg">
<path d="M4.8 20H4V15.587L7.75 14.831L10.362 17.539C11.2207 17.0657 11.9857 16.5857 12.657 16.099C13.3283 15.6123 13.931 15.089 14.465 14.529C14.9943 14.0037 15.5033 13.4137 15.992 12.759C16.4807 12.1057 16.953 11.3833 17.409 10.592L14.714 8.082L15.562 4H20V4.8C20 6.58 19.582 8.38067 18.746 10.202C17.91 12.0233 16.7357 13.697 15.223 15.223C13.697 16.749 12.0287 17.9267 10.218 18.756C8.40733 19.5853 6.60133 20 4.8 20ZM17.879 9.654C18.2317 8.86133 18.5007 8.078 18.686 7.304C18.8727 6.53067 18.9753 5.76267 18.994 5H16.366L15.786 7.735L17.879 9.654ZM9.429 17.988L7.389 15.909L5 16.385V18.989C5.782 18.9777 6.562 18.8853 7.34 18.712C8.11733 18.5393 8.81367 18.2973 9.429 17.988Z" fill="black"/>
</svg>
