<svg width="24" height="24" viewBox="0 0 24 24" fill="none" xmlns="http://www.w3.org/2000/svg">
<path d="M8 6.266L5.711 3.977L6.4 3.289L8.689 5.577L8 6.266ZM16 6.266L15.312 5.577L17.6 3.289L18.289 3.977L16 6.266ZM11.5 5.077V1.077H12.5V5.077H11.5ZM4 23V15.154L6.162 9H17.839L20 15.154V23H18.77V21H5.23V23H4ZM5.416 14.154H18.585L17.112 10H6.889L5.416 14.154ZM7.427 18.692C7.73833 18.692 8.00167 18.5833 8.217 18.366C8.43167 18.148 8.539 17.8833 8.539 17.572C8.539 17.2613 8.43 16.9987 8.212 16.784C7.994 16.5687 7.72967 16.461 7.419 16.461C7.10767 16.461 6.84433 16.57 6.629 16.788C6.415 17.006 6.308 17.2703 6.308 17.581C6.308 17.8923 6.41667 18.1557 6.634 18.371C6.852 18.585 7.11633 18.692 7.427 18.692ZM16.582 18.692C16.8927 18.692 17.1553 18.5833 17.37 18.366C17.5847 18.148 17.692 17.8833 17.692 17.572C17.692 17.2613 17.5833 16.9987 17.366 16.784C17.148 16.5687 16.8837 16.461 16.573 16.461C16.2617 16.461 15.9983 16.57 15.783 16.788C15.569 17.006 15.462 17.2703 15.462 17.581C15.462 17.8923 15.5707 18.1557 15.788 18.371C16.006 18.585 16.2707 18.692 16.582 18.692ZM5 20H19V15.154H5V20Z" fill="black"/>
</svg>
