<svg width="24" height="24" viewBox="0 0 24 24" fill="none" xmlns="http://www.w3.org/2000/svg">
<path d="M5.23 18V20H4V12.154L6.162 6H17.839L20 12.154V20H18.77V18H5.23ZM5.416 11.154H18.585L17.112 7H6.889L5.416 11.154ZM7.428 15.692C7.73867 15.692 8.00133 15.5833 8.216 15.366C8.43133 15.148 8.539 14.8833 8.539 14.572C8.539 14.2613 8.43 13.9987 8.212 13.784C7.994 13.5687 7.72967 13.461 7.419 13.461C7.10767 13.461 6.84433 13.57 6.629 13.788C6.415 14.006 6.308 14.2703 6.308 14.581C6.308 14.8923 6.41667 15.1557 6.634 15.371C6.852 15.585 7.11733 15.692 7.428 15.692ZM16.582 15.692C16.8927 15.692 17.1553 15.5833 17.37 15.366C17.5847 15.148 17.692 14.8833 17.692 14.572C17.692 14.2613 17.5833 13.9987 17.366 13.784C17.148 13.5687 16.8837 13.461 16.573 13.461C16.2617 13.461 15.9983 13.57 15.783 13.788C15.569 14.006 15.462 14.2703 15.462 14.581C15.462 14.8923 15.5707 15.1557 15.788 15.371C16.006 15.585 16.2707 15.692 16.582 15.692ZM5 17H19V12.154H5V17Z" fill="black"/>
</svg>
