<svg width="24" height="24" viewBox="0 0 24 24" fill="none" xmlns="http://www.w3.org/2000/svg">
<path d="M7.88501 21V4.48H10.308V3H13.692V4.48H16.116V21H7.88501ZM8.88501 20H15.115V5.462H8.88501V20ZM11.5 13.77H12.5V8.77H11.5V13.77ZM12 16.692C12.2067 16.692 12.38 16.622 12.52 16.482C12.66 16.342 12.73 16.1687 12.73 15.962C12.73 15.7553 12.66 15.582 12.52 15.442C12.38 15.302 12.2067 15.2317 12 15.231C11.7933 15.2303 11.62 15.3003 11.48 15.441C11.34 15.5817 11.27 15.755 11.27 15.961C11.27 16.167 11.34 16.3403 11.48 16.481C11.62 16.6217 11.7933 16.692 12 16.692Z" fill="black"/>
</svg>
