<svg width="24" height="24" viewBox="0 0 24 24" fill="none" xmlns="http://www.w3.org/2000/svg">
<path d="M2.59599 18.616V16.969C2.59599 16.505 2.71599 16.106 2.95599 15.772C3.19666 15.4387 3.51999 15.172 3.92599 14.972C4.79333 14.5587 5.65466 14.2293 6.50999 13.984C7.36466 13.7387 8.39333 13.616 9.59599 13.616C10.7987 13.616 11.8277 13.7387 12.683 13.984C13.5383 14.2293 14.3997 14.5587 15.267 14.972C15.6723 15.172 15.9953 15.4387 16.236 15.772C16.476 16.106 16.596 16.505 16.596 16.969V18.616H2.59599ZM18.596 18.616V16.923C18.596 16.343 18.4787 15.796 18.244 15.282C18.01 14.7673 17.6773 14.326 17.246 13.958C17.7373 14.058 18.2107 14.1967 18.666 14.374C19.1207 14.552 19.5707 14.7517 20.016 14.973C20.4493 15.191 20.789 15.47 21.035 15.81C21.281 16.15 21.404 16.521 21.404 16.923V18.616H18.596ZM9.59599 11.385C8.77133 11.385 8.06533 11.091 7.47799 10.503C6.89066 9.915 6.59666 9.20867 6.59599 8.384C6.59533 7.55934 6.88933 6.85334 7.47799 6.266C8.06666 5.67867 8.77266 5.38467 9.59599 5.384C10.4193 5.38334 11.1257 5.67734 11.715 6.266C12.3043 6.85467 12.598 7.56067 12.596 8.384C12.594 9.20734 12.3003 9.914 11.715 10.504C11.1297 11.094 10.4233 11.3873 9.59599 11.384M16.866 8.384C16.866 9.20934 16.572 9.916 15.984 10.504C15.396 11.092 14.69 11.3853 13.866 11.384C13.8233 11.384 13.7693 11.3793 13.704 11.37C13.6387 11.3607 13.5847 11.35 13.542 11.338C13.8813 10.9233 14.1417 10.4633 14.323 9.958C14.505 9.452 14.596 8.92667 14.596 8.382C14.596 7.83734 14.501 7.31734 14.311 6.822C14.121 6.32667 13.8647 5.863 13.542 5.431C13.596 5.41167 13.65 5.399 13.704 5.393C13.758 5.387 13.812 5.384 13.866 5.384C14.6907 5.384 15.3967 5.678 15.984 6.266C16.5713 6.854 16.8653 7.56 16.866 8.384ZM3.59599 17.616H15.596V16.969C15.596 16.7343 15.5373 16.5293 15.42 16.354C15.3027 16.1787 15.092 16.0107 14.788 15.85C14.042 15.4513 13.2553 15.146 12.428 14.934C11.6007 14.722 10.6567 14.616 9.59599 14.616C8.53533 14.616 7.59099 14.722 6.76299 14.934C5.93633 15.146 5.14966 15.4513 4.40299 15.85C4.09966 16.01 3.88933 16.178 3.77199 16.354C3.65466 16.5293 3.59599 16.7343 3.59599 16.969V17.616ZM9.59599 10.385C10.146 10.385 10.617 10.189 11.009 9.797C11.401 9.405 11.5967 8.934 11.596 8.384C11.5953 7.834 11.3997 7.36334 11.009 6.972C10.6183 6.58067 10.1473 6.38467 9.59599 6.384C9.04466 6.38334 8.57399 6.57934 8.18399 6.972C7.79399 7.36467 7.59799 7.83534 7.59599 8.384C7.59399 8.93267 7.78999 9.40367 8.18399 9.797C8.57799 10.1903 9.04866 10.386 9.59599 10.384" fill="black"/>
</svg>
