<svg width="24" height="24" viewBox="0 0 24 24" fill="none" xmlns="http://www.w3.org/2000/svg">
<path d="M7.885 6.577C7.425 6.577 7.02767 6.41 6.693 6.076C6.35833 5.742 6.19167 5.345 6.193 4.885C6.19433 4.425 6.361 4.02767 6.693 3.693C7.025 3.35833 7.42233 3.19167 7.885 3.193C8.34767 3.19433 8.74467 3.361 9.076 3.693C9.40733 4.025 9.57433 4.422 9.577 4.884C9.57967 5.346 9.41267 5.74333 9.076 6.076C8.73934 6.40867 8.34233 6.57567 7.885 6.577ZM6.44 19L4.039 7H5.05L7.25 18H14V19H6.44ZM19.076 21.385L16.523 17H8.102L6.677 10.204C6.53233 9.51933 6.68767 8.936 7.143 8.454C7.599 7.972 8.131 7.731 8.739 7.731C9.20634 7.731 9.636 7.87067 10.028 8.15C10.42 8.42933 10.6697 8.81133 10.777 9.296L11.992 15H16.541L19.942 20.885L19.076 21.385Z" fill="black"/>
</svg>
