<svg width="24" height="24" viewBox="0 0 24 24" fill="none" xmlns="http://www.w3.org/2000/svg">
<path d="M9.808 21.308V13.208L4.708 18.308L4 17.6L9.6 12L4 6.4L4.708 5.692L9.808 10.792V2.692H10.308L15.316 7.7L11.016 12L15.316 16.3L10.308 21.308H9.808ZM10.808 10.792L13.9 7.7L10.808 4.62V10.792ZM10.808 19.381L13.9 16.3L10.808 13.208V19.381ZM16.704 13.619L15.096 12L16.704 10.392C16.79 10.6567 16.8627 10.923 16.922 11.191C16.982 11.4583 17.012 11.728 17.012 12C17.012 12.272 16.9853 12.543 16.932 12.813C16.8787 13.083 16.8027 13.3517 16.704 13.619ZM18.923 15.816L18.25 15.154C18.5067 14.6653 18.7073 14.1573 18.852 13.63C18.9967 13.1027 19.069 12.5593 19.069 12C19.069 11.4407 18.9967 10.8973 18.852 10.37C18.7073 9.84267 18.5067 9.33467 18.25 8.846L18.923 8.173C19.2783 8.755 19.5467 9.36933 19.728 10.016C19.9093 10.662 20 11.3233 20 12C20 12.6767 19.9093 13.3373 19.728 13.982C19.5467 14.6267 19.2783 15.238 18.923 15.816Z" fill="black"/>
</svg>
